<?xml version="1.0" encoding="UTF-8" standalone="no"?>
<!-- Created with Inkscape (http://www.inkscape.org/) -->
<svg
   xmlns:dc="http://purl.org/dc/elements/1.1/"
   xmlns:cc="http://creativecommons.org/ns#"
   xmlns:rdf="http://www.w3.org/1999/02/22-rdf-syntax-ns#"
   xmlns:svg="http://www.w3.org/2000/svg"
   xmlns="http://www.w3.org/2000/svg"
   xmlns:sodipodi="http://sodipodi.sourceforge.net/DTD/sodipodi-0.dtd"
   xmlns:inkscape="http://www.inkscape.org/namespaces/inkscape"
   width="186.33"
   height="186.33"
   id="svg1901"
   sodipodi:version="0.32"
   inkscape:version="0.46"
   sodipodi:docname="leaf.svg"
   sodipodi:docbase="C:\Important\svg"
   inkscape:output_extension="org.inkscape.output.svg.inkscape"
   version="1.0">
  <defs
     id="defs1903">
    <inkscape:perspective
       sodipodi:type="inkscape:persp3d"
       inkscape:vp_x="0 : 526.18109 : 1"
       inkscape:vp_y="0 : 1000 : 0"
       inkscape:vp_z="744.09448 : 526.18109 : 1"
       inkscape:persp3d-origin="372.04724 : 350.78739 : 1"
       id="perspective4338" />
  </defs>
  <sodipodi:namedview
     id="base"
     pagecolor="#ffffff"
     bordercolor="#666666"
     borderopacity="1.0"
     inkscape:pageopacity="0.0"
     inkscape:pageshadow="2"
     inkscape:zoom="0.7"
     inkscape:cx="205.81395"
     inkscape:cy="-68.376196"
     inkscape:document-units="px"
     inkscape:current-layer="layer1"
     gridtolerance="10000"
     inkscape:window-width="1280"
     inkscape:window-height="938"
     inkscape:window-x="0"
     inkscape:window-y="6"
     showguides="true"
     inkscape:guide-bbox="true"
     showgrid="false" />
  <metadata
     id="metadata1906">
    <rdf:RDF>
      <cc:Work
         rdf:about="">
        <dc:format>image/svg+xml</dc:format>
        <dc:type
           rdf:resource="http://purl.org/dc/dcmitype/StillImage" />
      </cc:Work>
    </rdf:RDF>
  </metadata>
  <g
     inkscape:label="Taso 1"
     inkscape:groupmode="layer"
     id="layer1"
     style="opacity:1"
     transform="translate(-263.511,-606.14844)">
    <path
       style="fill:#89a02c;fill-rule:evenodd;stroke:#4c5a17;stroke-width:3.00000024;stroke-linecap:butt;stroke-linejoin:miter;stroke-opacity:1"
       d="M 422.27292,640.34394 C 432.85918,624.61295 448.34076,620.0402 448.34076,620.0402 C 448.34076,620.0402 442.54386,614.55398 439.22989,615.84521 C 426.2285,625.56064 419.44945,637.60334 419.44945,637.60334 C 266.27427,631.18356 285.91787,694.20064 265.011,775.7044 C 381.6304,804.72098 433.42735,745.61667 422.27292,640.34394 z"
       id="path2159"
       sodipodi:nodetypes="cccccc" />
    <path
       style="fill:#abc837;fill-opacity:1;fill-rule:evenodd;stroke:none;stroke-width:10;stroke-linecap:round;stroke-linejoin:round;stroke-opacity:1"
       d="M 302.27759,749.21062 C 312.59094,745.71342 319.22122,736.61389 328.93943,732.10035 C 335.14269,722.75636 349.43533,720.00907 346.17152,737.80846 C 341.8614,745.76032 352.91408,768.81454 355.72913,751.55812 C 358.08954,739.20136 348.85485,725.1466 351.93186,713.46388 C 358.49071,704.04816 365.40665,693.64598 375.07218,687.76244 C 382.80036,697.48542 383.13328,715.52311 382.74251,727.46905 C 396.22556,740.1495 392.54206,711.058 389.47711,702.77056 C 382.451,687.12849 383.55459,672.84496 397.6377,668.1622 C 404.73986,666.06346 419.53919,648.77051 403.1361,650.87667 C 392.38688,656.00479 386.31989,669.9091 373.03691,669.89063 C 361.92009,667.56636 338.81043,647.82534 336.66956,663.76491 C 342.93053,672.24787 369.9026,668.24127 365.11729,682.35945 C 353.65845,686.84665 352.6711,709.25674 336.37406,703.49154 C 326.77131,700.78319 307.80361,685.82768 305.15926,699.25865 C 310.75635,708.18676 334.56641,703.04273 333.28119,716.74618 C 321.90598,726.12074 305.73983,731.82061 298.22278,744.6954 C 298.65539,746.6772 300.291,748.78 302.27759,749.21062 z"
       id="path3147" />
  </g>
</svg>
